<svg id="Capa_1" enable-background="new 0 0 512 512" height="512" viewBox="0 0 512 512" width="512" xmlns="http://www.w3.org/2000/svg"><g><g><g><g><path d="m422.018 261.75h35.489v65.418h-35.489z" fill="#685e67"/><g><path d="m494.793 346.056h-30.831c-5.361 0-9.707-4.346-9.707-9.707v-83.78c0-5.361 4.346-9.707 9.707-9.707h30.831c5.361 0 9.707 4.346 9.707 9.707v83.78c0 5.361-4.346 9.707-9.707 9.707z" fill="#cbc5cb"/><path d="m504.5 252.566v83.78c0 5.36-4.35 9.71-9.71 9.71h-27.51c5.36 0 9.71-4.35 9.71-9.71v-83.78c0-5.36-4.35-9.7-9.71-9.7h27.51c5.36 0 9.71 4.34 9.71 9.7z" fill="#b5adb6"/></g></g><g><path d="m54.494 261.75h35.489v65.418h-35.489z" fill="#685e67" transform="matrix(-1 0 0 -1 144.476 588.918)"/><g><path d="m17.207 346.056h30.831c5.361 0 9.707-4.346 9.707-9.707v-83.78c0-5.361-4.346-9.707-9.707-9.707h-30.831c-5.361 0-9.707 4.346-9.707 9.707v83.78c0 5.361 4.346 9.707 9.707 9.707z" fill="#cbc5cb"/><path d="m57.75 252.566v83.78c0 5.36-4.35 9.71-9.71 9.71h-27.5c5.36 0 9.71-4.35 9.71-9.71v-83.78c0-5.36-4.35-9.7-9.71-9.7h27.5c5.36 0 9.71 4.34 9.71 9.7z" fill="#b5adb6"/></g></g></g><g><path d="m84.75 147.966v230.85c0 12.84 5.2 24.46 13.61 32.88 8.42 8.41 20.04 13.61 32.88 13.61 9.48 0 18.74-2.9 26.52-8.32 23.91-16.66 59.06-27.18 98.24-27.18s74.33 10.52 98.24 27.18c3.89 2.71 8.15 4.79 12.62 6.19 4.48 1.4 9.16 2.13 13.9 2.13 25.68 0 46.49-20.81 46.49-46.49v-230.85zm128.73 178.88c0 23.79-19.28 43.08-43.08 43.08-23.79 0-43.07-19.29-43.07-43.08v-20.3c0-5.88 4.77-10.65 10.65-10.65h64.85c5.88 0 10.65 4.77 10.65 10.65zm171.19 0c0 23.79-19.28 43.08-43.07 43.08-23.8 0-43.08-19.29-43.08-43.08v-20.3c0-5.88 4.77-10.65 10.65-10.65h64.85c5.88 0 10.65 4.77 10.65 10.65z" fill="#23f1a8"/><path d="m84.75 147.966v61.1c5.32 4.33 12.05 6.78 18.99 6.78 7.61 0 14.82-2.83 20.38-7.99 5.6 6.02 13.53 9.57 21.98 9.57 7.45 0 14.6-2.76 20.13-7.78l9.02-8.17c5.03 3.64 11.14 5.67 17.58 5.67 5.21 0 10.24-1.35 14.67-3.83l.54.84c5.54 8.65 14.99 13.81 25.26 13.81 8.82 0 17.04-3.82 22.7-10.38 5.66 6.56 13.88 10.38 22.7 10.38 10.27 0 19.72-5.16 25.26-13.81l.54-.84c4.43 2.48 9.46 3.83 14.67 3.83 6.44 0 12.55-2.03 17.58-5.67l9.02 8.17c5.53 5.02 12.68 7.78 20.13 7.78.085 0 .17 0 .257-.001 18.494-.172 33.633 14.657 33.633 33.152v128.239c0 20.89-13.77 38.55-32.72 44.42 4.42 1.36 9.02 2.07 13.69 2.07 25.68 0 46.49-20.81 46.49-46.49v-230.85z" fill="#26d192"/></g><g><path d="m419.65 86.693h-327.3c-11.113 0-20.466 8.319-21.762 19.356l-5.925 50.451c-.834 7.099 5.834 12.755 12.703 10.775l6.488-1.871s1.801 13.139 11.853 26.437c3.632 4.805 10.634 5.389 14.965 1.202l17.692-17.101 8.956 16.296c3.111 5.661 10.694 6.931 15.48 2.593l25-22.663 6.594 10.347c3.612 5.668 11.676 6.23 16.039 1.118l10.404-12.189 14.044 21.917c3.916 6.112 12.835 6.146 16.798.064l14.321-21.98 14.322 21.981c3.963 6.082 12.882 6.048 16.798-.064l14.044-21.917 10.404 12.189c4.364 5.112 12.427 4.55 16.039-1.118l6.594-10.347 25 22.663c4.786 4.339 12.369 3.069 15.48-2.593l8.956-16.296 17.692 17.101c4.331 4.186 11.333 3.603 14.965-1.202 10.052-13.298 11.853-26.437 11.853-26.437l6.488 1.871c6.868 1.981 13.536-3.675 12.703-10.775l-5.925-50.451c-1.297-11.038-10.65-19.357-21.763-19.357z" fill="#704545"/><path d="m434.63 167.276-6.48-1.87s-1.8 13.14-11.86 26.44c-3.63 4.8-10.63 5.38-14.96 1.2l-17.69-17.1-8.96 16.29c-3.11 5.67-10.69 6.94-15.48 2.6l-25-22.67-6.59 10.35c-3.61 5.67-11.68 6.23-16.04 1.12l-10.41-12.19-14.04 21.92c-3.92 6.11-12.84 6.14-16.8.06l-14.32-21.98-14.32 21.98c-3.96 6.08-12.88 6.05-16.8-.06l-14.04-21.92-10.41 12.19c-4.36 5.11-12.43 4.55-16.04-1.12l-6.59-10.35-25 22.67c-4.79 4.34-12.37 3.07-15.48-2.6l-8.96-16.29-17.69 17.1c-4.33 4.18-11.33 3.6-14.96-1.2-10.06-13.3-11.86-26.44-11.86-26.44l-6.48 1.87c-6.87 1.98-13.54-3.68-12.71-10.78l2.29-19.45c2.41 2.86 6.38 4.33 10.42 3.17 3.395-.98 6.936.946 7.973 4.324 1.557 5.074 4.609 12.633 10.367 20.246 3.63 4.8 10.63 5.38 14.96 1.2l11.61-11.223c3.063-2.961 8.102-2.2 10.155 1.532l4.885 8.881c3.11 5.66 10.69 6.93 15.48 2.6l19.323-17.522c2.967-2.691 7.642-2.062 9.794 1.317l2.474 3.885c3.61 5.67 11.68 6.23 16.04 1.12l4.752-5.564c2.817-3.298 8.018-2.941 10.358.711l9.341 14.583c3.92 6.11 12.84 6.14 16.8.06l8.905-13.668c2.55-3.914 8.281-3.914 10.831 0l8.905 13.668c3.96 6.08 12.88 6.05 16.8-.06l9.341-14.583c2.339-3.652 7.541-4.01 10.358-.711l4.752 5.564c4.36 5.11 12.43 4.55 16.04-1.12l2.474-3.885c2.151-3.379 6.826-4.007 9.794-1.317l19.323 17.522c4.79 4.33 12.37 3.06 15.48-2.6l4.885-8.881c2.053-3.733 7.092-4.493 10.155-1.532l11.61 11.223c4.33 4.18 11.33 3.6 14.96-1.2 5.758-7.612 8.81-15.172 10.367-20.246 1.037-3.378 4.578-5.304 7.973-4.324 4.04 1.16 8.01-.31 10.42-3.17l2.29 19.45c.825 7.1-5.845 12.76-12.715 10.78z" fill="#593637"/></g><g><path d="m501.745 236.842c-2.586-26.259-24.792-46.844-51.72-46.844h-15.275v-15.038c4.981.769 10.072-.637 13.975-3.948 4.48-3.8 6.746-9.552 6.06-15.386l-5.925-50.452c-1.739-14.812-14.297-25.981-29.211-25.981h-47.088c-4.142 0-7.5 3.358-7.5 7.5s3.358 7.5 7.5 7.5h47.088c7.308 0 13.461 5.473 14.313 12.73l5.925 50.452c.136 1.158-.484 1.874-.866 2.198-.381.324-1.189.818-2.311.495l-6.488-1.871c-2.081-.599-4.321-.253-6.142.919-1.82 1.173-3.047 3.093-3.362 5.235-.017.114-1.773 11.541-10.41 22.968-.613.81-1.425.987-1.854 1.021-.511.043-1.252-.048-1.915-.688l-17.692-17.101c-1.681-1.625-4.023-2.371-6.333-2.023-2.311.349-4.327 1.756-5.453 3.804l-8.956 16.296c-.508.924-1.332 1.187-1.778 1.262-.445.075-1.312.094-2.092-.613l-25-22.663c-1.637-1.484-3.844-2.171-6.035-1.876-2.19.294-4.139 1.539-5.327 3.402l-6.594 10.346c-.589.925-1.465 1.118-1.935 1.15s-1.364-.038-2.075-.871l-10.405-12.189c-1.542-1.807-3.854-2.773-6.217-2.613-2.369.162-4.521 1.437-5.803 3.436l-14.044 21.917c-.639.997-1.587 1.149-2.095 1.151-.55-.025-1.458-.143-2.104-1.135l-14.322-21.981c-1.384-2.125-3.748-3.406-6.284-3.406s-4.9 1.281-6.284 3.406l-14.322 21.981c-.646.992-1.634 1.107-2.104 1.135-.508-.002-1.457-.154-2.095-1.151l-14.044-21.917c-1.281-2-3.434-3.274-5.803-3.436-2.365-.162-4.675.807-6.217 2.613l-10.405 12.189c-.711.833-1.61.902-2.075.871-.47-.033-1.346-.226-1.935-1.15l-6.594-10.346c-1.188-1.863-3.136-3.108-5.327-3.402-2.19-.296-4.399.392-6.035 1.876l-25 22.663c-.78.708-1.647.688-2.092.613-.446-.075-1.271-.338-1.778-1.262l-8.956-16.296c-1.125-2.048-3.142-3.455-5.453-3.804-2.309-.347-4.652.399-6.333 2.023l-17.692 17.101c-.663.64-1.405.732-1.915.688-.43-.033-1.242-.21-1.854-1.021-8.637-11.427-10.394-22.854-10.405-22.934-.296-2.157-1.515-4.08-3.34-5.268s-4.077-1.524-6.168-.92l-6.489 1.871c-1.121.321-1.928-.172-2.31-.496s-1.001-1.04-.866-2.198l5.925-50.452c.852-7.257 7.006-12.73 14.313-12.73h244.815c4.142 0 7.5-3.358 7.5-7.5s-3.358-7.5-7.5-7.5h-244.806c-14.914 0-27.472 11.169-29.211 25.981l-5.925 50.451c-.686 5.834 1.58 11.586 6.06 15.387 3.904 3.311 8.994 4.717 13.975 3.948v15.038h-15.275c-26.927 0-49.134 20.585-51.72 46.844-6.032 2.678-10.255 8.715-10.255 15.728v83.78c0 9.488 7.719 17.207 17.207 17.207h30.832c9.488 0 17.207-7.719 17.207-17.207v-1.681h12.004v44.152c0 29.768 24.218 53.986 53.986 53.986 11.083 0 21.738-3.342 30.81-9.664 23.563-16.419 57.808-25.836 93.954-25.836s70.39 9.417 93.953 25.836c9.073 6.322 19.727 9.664 30.811 9.664 29.768 0 53.986-24.218 53.986-53.986v-44.152h12.004v1.681c0 9.488 7.719 17.207 17.207 17.207h30.832c9.488 0 17.207-7.719 17.207-17.207v-83.78c0-7.013-4.223-13.05-10.255-15.727zm-51.72-31.843c18.131 0 33.244 13.121 36.371 30.364h-22.435c-9.488 0-17.207 7.719-17.207 17.207v1.681h-12.004v-49.251h15.275zm-347.643-1.704c4.982.385 9.907-1.383 13.502-4.858l10.634-10.279 4.229 7.694c2.595 4.722 7.131 7.941 12.446 8.831 5.316.892 10.653-.675 14.644-4.294l18.415-16.693 1.817 2.851c3.013 4.728 7.949 7.663 13.542 8.053 5.594.392 10.887-1.833 14.527-6.096l3.84-4.499 8.589 13.404c3.219 5.023 8.702 8.036 14.668 8.059 5.99.004 11.472-2.948 14.728-7.947l8.037-12.337 8.038 12.336c3.245 4.98 8.721 7.947 14.661 7.947h.067c5.966-.023 11.45-3.035 14.668-8.059l8.589-13.404 3.84 4.499c3.639 4.264 8.932 6.484 14.527 6.096 5.593-.39 10.528-3.325 13.542-8.053l1.817-2.851 18.415 16.693c3.992 3.619 9.328 5.188 14.644 4.294 5.314-.89 9.851-4.109 12.446-8.831l4.229-7.694 10.634 10.279c3.594 3.474 8.511 5.245 13.502 4.858 3.77-.293 7.314-1.798 10.132-4.235v23.956h-20.42v-1.043c0-4.142-3.358-7.5-7.5-7.5s-7.5 3.358-7.5 7.5v1.043h-37.188v-1.043c0-4.142-3.358-7.5-7.5-7.5s-7.5 3.358-7.5 7.5v1.043h-97.32v-1.043c0-4.142-3.358-7.5-7.5-7.5s-7.5 3.358-7.5 7.5v1.043h-15.691v-1.043c0-4.142-3.358-7.5-7.5-7.5s-7.5 3.358-7.5 7.5v1.043h-55.814v-1.043c0-4.142-3.358-7.5-7.5-7.5s-7.5 3.358-7.5 7.5v1.043h-26.068v-23.955c2.818 2.438 6.362 3.943 10.132 4.235zm-40.407 1.704h15.275v49.251h-12.004v-1.681c0-9.488-7.719-17.207-17.207-17.207h-22.435c3.127-17.242 18.24-30.363 36.371-30.363zm3.271 114.669v-10.206c0-4.142-3.358-7.5-7.5-7.5s-7.5 3.358-7.5 7.5v26.887c0 1.217-.99 2.207-2.207 2.207h-30.832c-1.217 0-2.207-.99-2.207-2.207v-83.78c0-1.217.99-2.207 2.207-2.207h30.832c1.217 0 2.207.99 2.207 2.207v21.498c0 4.142 3.358 7.5 7.5 7.5s7.5-3.358 7.5-7.5v-4.817h12.004v50.418zm138.75 68.965c-19.038 4.864-36.551 12.465-50.525 22.203-6.544 4.56-14.232 6.971-22.234 6.971-21.497 0-38.986-17.489-38.986-38.986v-140.804h26.067v4.845c0 4.142 3.358 7.5 7.5 7.5s7.5-3.358 7.5-7.5v-4.845h55.814v4.845c0 4.142 3.358 7.5 7.5 7.5s7.5-3.358 7.5-7.5v-4.845h15.691v4.845c0 4.142 3.358 7.5 7.5 7.5s7.5-3.358 7.5-7.5v-4.845h97.32v4.845c0 4.142 3.358 7.5 7.5 7.5s7.5-3.358 7.5-7.5v-4.845h37.188v4.845c0 4.142 3.358 7.5 7.5 7.5s7.5-3.358 7.5-7.5v-4.845h20.42v140.803c0 21.497-17.489 38.986-38.986 38.986-8.002 0-15.69-2.411-22.235-6.971-13.974-9.737-31.487-17.339-50.524-22.203-36.635-11.688-31.131-77.68-31.044-78.657.383-4.125-2.649-7.779-6.773-8.162-4.127-.384-7.779 2.649-8.162 6.773-.227 2.448-4.022 46.883 15.404 74.767-7.043-.692-14.205-1.048-21.429-1.048s-14.386.357-21.429 1.048c19.426-27.884 15.631-72.319 15.404-74.767-.383-4.125-4.043-7.155-8.162-6.773-4.124.383-7.157 4.038-6.773 8.162.06.669 5.778 66.909-31.046 78.658zm230.754-68.965v-50.418h12.004v50.418zm62.25 16.681c0 1.217-.99 2.207-2.207 2.207h-30.832c-1.217 0-2.207-.99-2.207-2.207v-83.78c0-1.217.99-2.207 2.207-2.207h30.832c1.217 0 2.207.99 2.207 2.207z"/><path d="m227.515 268.533c-4.142 0-7.5 3.358-7.5 7.5 0 6.814-5.544 12.358-12.358 12.358h-4.827s0 0 0 0h-67.973c-6.815 0-12.359-5.544-12.359-12.358 0-4.142-3.358-7.5-7.5-7.5s-7.5 3.358-7.5 7.5c0 10.102 5.508 18.937 13.675 23.675-.863 2.113-1.348 4.419-1.348 6.839v20.3c0 27.89 22.69 50.58 50.58 50.58s50.58-22.69 50.58-50.58v-20.3c0-2.131-.388-4.168-1.065-6.069 8.943-4.505 15.096-13.767 15.096-24.445-.001-4.142-3.359-7.5-7.501-7.5zm-21.53 58.314c0 19.619-15.961 35.58-35.58 35.58s-35.58-15.961-35.58-35.58v-20.3c0-1.74 1.415-3.155 3.155-3.155h64.85c1.74 0 3.155 1.416 3.155 3.155z"/><path d="m397.002 268.533c-4.142 0-7.5 3.358-7.5 7.5 0 6.814-5.544 12.358-12.359 12.358h-72.8c-6.814 0-12.358-5.544-12.358-12.358 0-4.142-3.358-7.5-7.5-7.5s-7.5 3.358-7.5 7.5c0 10.678 6.153 19.94 15.096 24.445-.677 1.901-1.065 3.938-1.065 6.069v20.301c0 27.89 22.69 50.58 50.58 50.58 7.061 0 13.911-1.439 20.359-4.278 3.791-1.669 5.511-6.095 3.842-9.886s-6.096-5.51-9.886-3.842c-4.532 1.995-9.349 3.007-14.315 3.007-19.619 0-35.58-15.961-35.58-35.58v-20.301c0-1.74 1.416-3.155 3.155-3.155h64.85c1.74 0 3.155 1.416 3.155 3.155v20.301c0 3.683-.564 7.321-1.678 10.814-1.258 3.947.922 8.166 4.869 9.423 3.948 1.257 8.165-.923 9.423-4.869 1.583-4.968 2.386-10.139 2.386-15.369v-20.301c0-2.42-.485-4.726-1.348-6.839 8.167-4.739 13.675-13.573 13.675-23.675-.001-4.142-3.359-7.5-7.501-7.5z"/></g></g></g></svg>